<svg width="34" height="34" viewBox="0 0 34 34" fill="none" xmlns="http://www.w3.org/2000/svg">
<path fill-rule="evenodd" clip-rule="evenodd" d="M17 34C26.3888 34 34 26.3888 34 17C34 7.61116 26.3888 0 17 0C7.61116 0 0 7.61116 0 17C0 26.3888 7.61116 34 17 34Z" fill="#4C52BC"/>
<mask id="mask0" mask-type="alpha" maskUnits="userSpaceOnUse" x="0" y="0" width="34" height="34">
<path fill-rule="evenodd" clip-rule="evenodd" d="M17 34C26.3888 34 34 26.3888 34 17C34 7.61116 26.3888 0 17 0C7.61116 0 0 7.61116 0 17C0 26.3888 7.61116 34 17 34Z" fill="white"/>
</mask>
<g mask="url(#mask0)">
<path d="M-15.7879 -15.3187C-15.7443 -13.0827 -15.2808 -10.874 -14.4209 -8.80486C-12.7373 -4.78747 -9.9803 -2.40856 -7.23633 -0.318581C-3.2803 2.69417 1.61765 5.51394 4.02973 6.69363C6.31109 7.80932 8.56224 9.10681 10.8635 10.1751C12.8641 11.3094 14.803 12.5464 16.6721 13.8813C22.3675 17.9521 26.5178 22.9441 27.6156 25.2876C28.9784 28.1969 29.7864 31.6596 29.7701 35.5567C29.7456 41.4138 27.6892 45.8396 26.2394 48.5844C23.188 54.3617 18.0697 61.653 16.5678 63.6968C12.8906 68.7003 9.77427 74.1824 7.21883 80.1429C6.33758 77.7296 5.55255 75.3067 4.83658 72.7938C3.76122 69.019 2.8861 64.7373 2.33091 61.9C0.0609646 50.2989 -9.17624 37.7607 -23.1912 24.6629V-15.2065L-15.7879 -15.3187Z" fill="#F98E73"/>
<path opacity="0.878" d="M17.9342 -7.6453C18.5002 -7.24212 19.0402 -6.80335 19.5509 -6.33163C20.6827 -5.28605 21.5895 -4.17144 22.0141 -3.39533C22.9972 -1.59822 23.1667 0.311364 22.9585 2.70115C22.7441 5.1622 21.8947 8.48223 21.6936 9.10946C19.5499 15.7954 19.6362 25.9162 24.8623 31.3001C25.3194 31.7711 26.9057 32.8926 28.1721 33.7729C30.3019 35.2528 32.3136 36.5338 34.3299 38.1001C36.5419 39.8183 37.9366 41.1946 38.9213 42.966C39.6886 44.3461 40.5387 47.0989 40.8729 50.2323C40.9375 50.8385 40.9867 51.3772 41.0899 51.9746C41.4635 54.1343 42.1726 55.9754 42.7766 56.8717C43.5696 58.0481 45.7355 59.658 48.981 60.8014C50.4005 61.3015 53.4441 61.7953 55.6673 63.0384C57.6337 64.1377 59.2265 65.6861 60.5012 67.5416C35.7269 87.7869 2.00919 86.1125 -16.6266 67.5416C-38.259 45.9844 -36.8988 4.4845 -16.6266 -8.0315C-6.75149 -14.1283 6.42729 -12.5946 18.3197 -8.0315" fill="#C4E2E6"/>
<mask id="mask1" mask-type="alpha" maskUnits="userSpaceOnUse" x="-33" y="-13" width="94" height="96">
<path d="M17.9342 -7.6453C18.5002 -7.24212 19.0402 -6.80335 19.5509 -6.33163C20.6827 -5.28605 21.5895 -4.17144 22.0141 -3.39533C22.9972 -1.59822 23.1667 0.311364 22.9585 2.70115C22.7441 5.1622 21.8947 8.48223 21.6936 9.10946C19.5499 15.7954 19.6362 25.9162 24.8623 31.3001C25.3194 31.7711 26.9057 32.8926 28.1721 33.7729C30.3019 35.2528 32.3136 36.5338 34.3299 38.1001C36.5419 39.8183 37.9366 41.1946 38.9213 42.966C39.6886 44.3461 40.5387 47.0989 40.8729 50.2323C40.9375 50.8385 40.9867 51.3772 41.0899 51.9746C41.4635 54.1343 42.1726 55.9754 42.7766 56.8717C43.5696 58.0481 45.7355 59.658 48.981 60.8014C50.4005 61.3015 53.4441 61.7953 55.6673 63.0384C57.6337 64.1377 59.2265 65.6861 60.5012 67.5416C35.7269 87.7869 2.00919 86.1125 -16.6266 67.5416C-38.259 45.9844 -36.8988 4.4845 -16.6266 -8.0315C-6.75149 -14.1283 6.42729 -12.5946 18.3197 -8.0315" fill="white"/>
</mask>
<g mask="url(#mask1)">
<path d="M7.21628 80.1416C6.33611 77.72 5.55202 75.289 4.83667 72.7671C3.76131 68.9756 2.88611 64.6748 2.33099 61.825C0.0610485 50.1725 -9.17608 37.5786 -23.1912 24.4228V-2.83851C-21.3693 -4.92189 -19.2968 -6.70497 -16.9787 -8.11768C-16.1843 -8.60144 -15.3633 -9.04093 -14.5196 -9.43408C-14.4874 -9.35366 -14.4546 -9.27337 -14.4211 -9.1932C-12.7375 -5.158 -9.98052 -2.76853 -7.23655 -0.669293C-3.28052 2.35682 1.61742 5.18909 4.02958 6.37409C6.31094 7.49465 8.56201 8.79796 10.8633 9.87103C12.864 11.0103 14.8028 12.2528 16.672 13.5936C17.9549 14.5164 19.1901 15.5027 20.3729 16.5487C20.1672 21.8759 21.3841 27.4996 24.8778 31.0523C25.339 31.5213 26.9394 32.6381 28.217 33.5149C28.7384 33.8725 29.2526 34.2184 29.7618 34.5596C29.7684 34.8261 29.7712 35.0946 29.7701 35.3651C29.7455 41.2483 27.6891 45.6936 26.2394 48.4506C23.188 54.2534 18.0698 61.5772 16.5677 63.6301C12.8918 68.6541 9.7763 74.1584 7.22133 80.1428L7.21628 80.1416Z" fill="#F8D9AF"/>
</g>
</g>
</svg>
