<svg width="32" height="26" viewBox="0 0 32 26" fill="none" xmlns="http://www.w3.org/2000/svg">
<path d="M28.8 3.25H19.856C19.4363 3.2482 19.034 3.07896 18.736 2.77875L16.464 0.47125C16.166 0.171041 15.7637 0.00179501 15.344 0H3.2C1.43269 0 0 1.45507 0 3.25V22.75C0 24.5449 1.43269 26 3.2 26H28.8C30.5673 26 32 24.5449 32 22.75V6.5C32 4.70507 30.5673 3.25 28.8 3.25Z" fill="url(#paint0_linear)"/>
<path fill-rule="evenodd" clip-rule="evenodd" d="M15.5294 11.2917C15.5294 12.5573 14.476 13.5833 13.1765 13.5833C11.877 13.5833 10.8235 12.5573 10.8235 11.2917C10.8235 10.026 11.877 9 13.1765 9C14.476 9 15.5294 10.026 15.5294 11.2917ZM19.2941 10.8333C18.2545 10.8333 17.4118 11.6541 17.4118 12.6667C17.4118 13.6792 18.2545 14.5 19.2941 14.5C20.3337 14.5 21.1765 13.6792 21.1765 12.6667C21.1765 11.6541 20.3337 10.8333 19.2941 10.8333ZM18.0456 16.6847C17.635 15.9062 16.7939 15.415 15.8746 15.4167H11.4195C10.5002 15.415 9.65916 15.9062 9.24852 16.6847L8.08634 18.8924C7.96046 19.1288 7.97291 19.4101 8.11923 19.6357C8.26556 19.8614 8.5249 19.9992 8.80463 20H18.4895C18.7692 19.9992 19.0286 19.8614 19.1749 19.6357C19.3212 19.4101 19.3337 19.1288 19.2078 18.8924L18.0456 16.6847ZM23.1192 17.5433L23.9109 18.9367C24.0408 19.1636 24.028 19.4337 23.8769 19.6503C23.7258 19.8669 23.458 19.9992 23.1692 20H20.5275C20.7521 19.4368 20.707 18.8174 20.4025 18.284L19.2941 16.3333H20.8858C21.8302 16.3331 22.6942 16.8012 23.1192 17.5433Z" fill="#E2AB5F"/>
<defs>
<linearGradient id="paint0_linear" x1="0" y1="0" x2="0" y2="26" gradientUnits="userSpaceOnUse">
<stop stop-color="#F8D9AF"/>
<stop offset="1" stop-color="#FBD199"/>
</linearGradient>
</defs>
</svg>
