<svg width="194" height="163" viewBox="0 0 194 163" fill="none" xmlns="http://www.w3.org/2000/svg">
<path fill-rule="evenodd" clip-rule="evenodd" d="M70.0012 98.21C70.161 118.564 89.0234 152.139 112.162 152.986C129.545 153.621 171.426 132.811 173.904 110.129C175.422 96.1828 159.118 39.2044 113.68 46.6715C94.6181 49.806 69.8014 72.6453 70.0012 98.21Z" fill="#C4E2E6"/>
<path fill-rule="evenodd" clip-rule="evenodd" d="M132.92 130.395C128.56 170.754 69.1599 200.652 66.9599 199.582C64.7599 198.51 65.3999 197.049 66.9599 196.381C96.7999 183.322 112.48 142.461 115.72 118.397C116.24 114.707 133.4 126.148 132.92 130.395Z" fill="#EB8268"/>
<mask id="mask0" mask-type="alpha" maskUnits="userSpaceOnUse" x="121" y="149" width="10" height="10">
<path fill-rule="evenodd" clip-rule="evenodd" d="M121.12 158.378C122.84 156.038 124.4 153.62 125.84 151.137C127.28 150.711 128.72 150.228 130.2 149.691L130.12 149.99C130.12 149.99 122.88 157.957 121.12 158.378Z" fill="white"/>
</mask>
<g mask="url(#mask0)">
<path fill-rule="evenodd" clip-rule="evenodd" d="M121.12 158.378H130.2V149.691H121.12V158.378Z" fill="#FFFFFE"/>
</g>
<path fill-rule="evenodd" clip-rule="evenodd" d="M121.12 158.378C125.88 151.881 129.64 144.806 131.64 137.304C130.36 142.103 128.36 146.728 125.84 151.137C124.4 153.62 122.84 156.038 121.12 158.378Z" fill="#EFA630"/>
<path fill-rule="evenodd" clip-rule="evenodd" d="M120.96 158.396C120.64 158.396 120.6 158.042 120.92 157.188C122.92 151.998 122.52 146.052 121.04 140.849C122.36 137.766 123.4 134.738 124.16 131.809C126.76 133.577 129.24 135.411 131.64 137.304C129.64 144.806 125.88 151.881 121.12 158.378C121.04 158.39 121 158.396 120.96 158.396Z" fill="#DE7960"/>
<path fill-rule="evenodd" clip-rule="evenodd" d="M113.88 128.376V128.376C114.16 127.193 114.4 126.033 114.64 124.895V124.895C114.4 126.032 114.16 127.195 113.88 128.376Z" fill="#DF882F"/>
<path fill-rule="evenodd" clip-rule="evenodd" d="M120.68 139.684C119 134.479 116.28 130.172 113.88 128.376C114.16 127.195 114.4 126.032 114.64 124.895C115.04 125.796 115.56 126.463 116.12 126.795C118.68 128.251 121.12 129.77 123.48 131.348C122.8 134.026 121.88 136.818 120.68 139.684Z" fill="#DE7960"/>
<path fill-rule="evenodd" clip-rule="evenodd" d="M65.7201 198.59C65.6001 198.382 65.5601 198.172 65.5601 197.967C65.5601 197.913 65.5601 197.859 65.5601 197.805C77.0797 192.9 90.0001 182.817 101.36 169.739C110.08 159.764 116.76 149.297 120.68 139.684C121.88 136.818 122.8 134.026 123.48 131.348C123.68 131.5 123.92 131.656 124.16 131.809C123.4 134.738 122.36 137.766 121.04 140.849C111.32 163.726 87.2001 189.528 65.7201 198.59Z" fill="#DB7055"/>
<path fill-rule="evenodd" clip-rule="evenodd" d="M119.72 107.198C111.6 111.885 112.8 124.884 116.12 126.795C163.32 153.939 179.72 203.648 181.32 221.178C181.48 222.87 183.28 221.791 183.32 219.977C184.96 160.67 140.08 111.36 130.12 106.4C126.68 104.684 123.52 105.004 119.72 107.198Z" fill="#F98E73"/>
<path fill-rule="evenodd" clip-rule="evenodd" d="M114.8 112.98C115.4 111.542 116.24 110.189 117.36 109.042C118.44 108.924 119.8 108.808 121 108.804H121.12C122.76 108.807 124.12 109.018 124.16 109.7C124.32 111.192 117.6 111.714 114.8 112.98Z" fill="#DF882F"/>
<path fill-rule="evenodd" clip-rule="evenodd" d="M181.32 221.002C181.08 218.388 180.48 215.076 179.56 211.246C177.4 198.97 171.56 181.731 161.88 164.016C143.72 130.518 125.16 119.169 114.04 115.35C114.12 115.087 114.2 114.824 114.24 114.563C122.96 117.503 131.6 123.349 140 131.98C148 140.247 155.84 151.192 162.6 163.633C173.84 184.32 181.44 207.823 181.32 221.002Z" fill="#DB7055"/>
<path fill-rule="evenodd" clip-rule="evenodd" d="M97.3201 26.8988C104.64 25.3468 111.76 10.2252 119.32 17.2988C137.56 34.3884 118.96 67.2632 116.92 69.6992C114.88 72.1348 117.52 83.6188 112.92 88.8988C110 92.2216 106.44 91.9464 102.64 91.6712C99.2001 91.4188 95.5601 91.1648 92.1201 93.6988C88.8001 96.1452 88.9601 102.756 81.7201 102.9C77.8401 102.976 75.6001 101.63 73.7601 100.283C71.8401 98.8564 70.4001 97.4284 68.1201 97.6988C58.8801 98.7876 53.4001 106.822 48.5201 100.499C42.8797 93.214 54.2797 84.0972 55.3201 80.4992C57.6001 72.6396 43.3201 71.4148 46.1201 60.0992C48.7601 49.4412 60.6001 49.4456 66.5201 44.0984C74.0797 37.274 71.6401 25.128 78.9201 22.0988C83.3601 20.2532 86.1201 22.2396 88.8801 24.226C91.2801 25.9432 93.7201 27.662 97.3201 26.8988Z" fill="#F8D9AF"/>
<path fill-rule="evenodd" clip-rule="evenodd" d="M134.92 57.2992C167.4 69.4728 162.8 55.622 155.72 44.0984C155.24 43.34 157.36 43.2224 157.72 43.6992C167.92 58.5592 171.6 75.5708 129.72 68.0996C127.92 67.7768 133.28 56.694 134.92 57.2992Z" fill="#3D43A2"/>
<path fill-rule="evenodd" clip-rule="evenodd" d="M160.68 68.9884C160.36 68.5148 160 68.0452 159.68 67.5788C163.04 65.7608 164.4 63.0036 164.4 59.7488C164.4 58.998 164.32 58.2224 164.2 57.424C164.24 56.6964 164.44 56.4456 164.68 56.4324H164.72C165.2 56.4572 165.76 57.2992 165.76 57.2992V64.0992L160.68 68.9884Z" fill="#FFFFFE"/>
<path fill-rule="evenodd" clip-rule="evenodd" d="M147.16 69.9185C144.12 69.9185 140.6 69.6773 136.6 69.1601C135.96 66.9149 135.56 64.7633 135.36 62.9237C142.28 65.3845 147.88 66.4465 152.24 66.4465C160.24 66.4465 164.04 62.8169 164.16 57.6985C164.16 57.6001 164.2 57.5089 164.2 57.4241C164.32 58.2225 164.4 58.9981 164.4 59.7489C164.4 65.6549 159.92 69.9185 147.16 69.9185Z" fill="#2D3182"/>
<path fill-rule="evenodd" clip-rule="evenodd" d="M155.72 43.6993C155.4 42.8569 160.76 37.9285 161.72 38.8993C162.64 39.8705 162.68 42.3337 162.12 42.8997C161.52 43.4641 158.96 44.8141 158.12 44.8997C157.24 44.9837 156 44.5405 155.72 43.6993Z" fill="#F2BCB6"/>
<path fill-rule="evenodd" clip-rule="evenodd" d="M109.44 59.9741C118.24 79.9261 119.84 96.4849 119.24 106.791C119.12 108.689 130 110.912 132.08 107.363C133 105.8 135.56 86.3269 134.76 78.7149C136.68 77.9045 138.52 74.5297 137.8 72.7313C134.68 65.1333 135.04 57.2993 135.04 57.2993C135.04 57.2993 130.96 56.0701 128.24 54.4873C127.76 54.2013 127.32 54.4521 126.88 54.7029C126.48 54.9597 126.08 55.2169 125.76 54.8989C124.44 53.6081 121.36 54.1509 120.56 54.8989C120.28 55.1833 119.8 54.9829 119.36 54.7825C118.96 54.5945 118.56 54.4049 118.28 54.6249C115.92 56.6785 113.64 57.8653 109.44 59.9741Z" fill="#4C52BC"/>
<path fill-rule="evenodd" clip-rule="evenodd" d="M135.08 78.5588C136.68 77.6592 138.12 75.1356 137.96 73.3864C138.12 75.1356 136.68 77.6592 135.08 78.5588Z" fill="#4A5256"/>
<path fill-rule="evenodd" clip-rule="evenodd" d="M125.44 79.2692C122.96 79.2692 120.8 79.0716 120.16 78.4992C120 78.3196 119.88 78.06 119.88 77.7572V77.6972C119.92 76.4152 121.32 74.4328 122.6 74.4328C122.72 74.4328 122.84 74.454 122.96 74.4988C123.24 74.5912 123.76 74.6308 124.44 74.6308C127.88 74.6304 135.6 73.7056 137.96 73.3864C138.12 75.1356 136.68 77.6592 135.08 78.5588C133.52 78.852 129.12 79.2692 125.44 79.2692Z" fill="#383D95"/>
<path fill-rule="evenodd" clip-rule="evenodd" d="M114.2 109.828C115.56 110.208 124 111.36 124.24 109.446C124.44 107.532 115.36 106.781 114.28 107.791C113.24 108.801 112.84 109.448 114.2 109.828Z" fill="#F2BCB6"/>
<path fill-rule="evenodd" clip-rule="evenodd" d="M148.24 29.8591C145.44 30.9095 142.84 34.0703 143.96 37.2707C145.04 40.4683 149.2 40.7191 151.56 40.0783C153.92 39.4375 166.04 37.8471 169.76 37.6455C172.4 37.5031 175.24 39.0903 177.56 40.6791C180.04 42.3567 181.88 44.0339 182.24 43.6715C185.56 40.2739 183.28 14.2743 177.32 11.3459C175.52 10.4699 173.04 20.5635 168.72 22.0559C157.52 25.9507 149.56 29.3515 148.24 29.8591Z" fill="#D8E0F7"/>
<path fill-rule="evenodd" clip-rule="evenodd" d="M154.28 38.1547C154.32 38.8135 157.92 44.9715 159.04 44.9851C160.12 44.9975 161.24 44.8827 161.44 44.2007C161.6 43.5159 160.76 43.6107 160.24 42.9927C159.72 42.3735 159.28 38.2479 158.68 37.3823C158.08 36.5167 154.2 37.4955 154.28 38.1547Z" fill="#49A1CD"/>
<path fill-rule="evenodd" clip-rule="evenodd" d="M157.84 47.7721C157.2 46.5437 156.48 45.3081 155.72 44.0985C155.64 43.9389 155.64 43.8077 155.72 43.7045C156 44.4745 157.08 44.9097 157.92 44.9097C158 44.9097 158.08 44.9065 158.12 44.8997C158.24 44.8897 158.36 44.8629 158.48 44.8225C159.08 45.7249 159.64 46.6305 160.2 47.5381L157.84 47.7721Z" fill="#3D43A2"/>
<path fill-rule="evenodd" clip-rule="evenodd" d="M157.92 44.9096C157.08 44.9096 156 44.4744 155.72 43.7044C155.72 43.7028 155.72 43.7012 155.72 43.6992C155.64 43.4668 156 42.9224 156.56 42.2768C157.28 43.382 158.04 44.3808 158.6 44.7896C158.56 44.8012 158.52 44.8124 158.48 44.8224C158.36 44.8628 158.24 44.8896 158.12 44.8996C158.08 44.9064 158 44.9096 157.92 44.9096ZM161.12 43.588C160.88 43.4424 160.52 43.3136 160.24 42.9928C159.92 42.6376 159.64 41.1288 159.36 39.7436C160.16 39.1712 160.92 38.7732 161.4 38.7732C161.52 38.7732 161.64 38.8128 161.72 38.8992C162.64 39.8704 162.68 42.3336 162.12 42.8996C161.96 43.074 161.56 43.3236 161.12 43.588Z" fill="#F2BCB6"/>
<path fill-rule="evenodd" clip-rule="evenodd" d="M159.16 44.986C159.12 44.986 159.08 44.986 159.04 44.9852C158.92 44.984 158.76 44.914 158.6 44.7896C158.04 44.3808 157.28 43.382 156.56 42.2768C155.92 41.3116 155.28 40.2652 154.88 39.4612C156.12 39.2604 157.6 39.0436 159.16 38.832C159.24 39.1196 159.28 39.428 159.36 39.7436C159.64 41.1288 159.92 42.6376 160.24 42.9928C160.52 43.3136 160.88 43.4424 161.12 43.588C161.36 43.7224 161.52 43.8716 161.44 44.2008C161.24 44.8524 160.24 44.986 159.16 44.986Z" fill="#6D7897"/>
<path fill-rule="evenodd" clip-rule="evenodd" d="M142.6 39.0665L141.76 37.6993C141.76 37.6993 141.48 37.1069 141.56 36.7177L142.6 39.0665Z" fill="#FFFFFE"/>
<path fill-rule="evenodd" clip-rule="evenodd" d="M143.76 36.4264C143.72 36.1856 143.72 35.9456 143.72 35.708C143.72 33.1916 145.76 30.9204 148 29.968C147.28 31.2244 147.32 33.4548 147.84 35.554C146.12 35.9588 144.72 36.274 143.76 36.4264Z" fill="#6D7897"/>
<path fill-rule="evenodd" clip-rule="evenodd" d="M182.12 43.7217C181.52 43.7217 179.8 42.2005 177.56 40.6793C175.36 39.1573 172.64 37.6365 170.12 37.6365C170 37.6365 169.88 37.6397 169.76 37.6457C167.76 37.7553 163.24 38.2765 159.16 38.8321C159 38.1805 158.84 37.6385 158.68 37.3825C158.52 37.1393 158.08 37.0417 157.56 37.0417C156.2 37.0417 154.2 37.6809 154.28 38.1549C154.28 38.3165 154.52 38.8093 154.88 39.4613C153.36 39.7017 152.16 39.9193 151.56 40.0785C151.24 40.1657 150.88 40.2365 150.52 40.2853C149.32 39.5101 148.36 37.5941 147.84 35.5541C149.92 35.0657 152.4 34.4473 155 33.8289C160.64 32.4797 166.76 31.1305 170 31.1305C171.12 31.1305 171.92 31.3001 172.16 31.6989C176.48 38.1397 179.2 42.1193 181.12 42.1193C181.2 42.1193 181.28 42.1125 181.36 42.0985C182 41.9905 182.56 41.8109 182.92 41.8109C183 41.8109 183.08 41.8181 183.12 41.8353C182.92 42.6729 182.6 43.3045 182.24 43.6717C182.2 43.7057 182.16 43.7217 182.12 43.7217Z" fill="#E4EBFF"/>
<path fill-rule="evenodd" clip-rule="evenodd" d="M154.88 39.4612C154.52 38.8092 154.28 38.3164 154.28 38.1548C154.2 37.6808 156.2 37.0416 157.56 37.0416C158.08 37.0416 158.52 37.1392 158.68 37.3824C158.84 37.6384 159 38.1804 159.16 38.832C157.6 39.0436 156.12 39.2604 154.88 39.4612Z" fill="#6D7897"/>
<path fill-rule="evenodd" clip-rule="evenodd" d="M149.32 40.3621C147.16 40.3621 144.76 39.5945 143.96 37.2709C143.88 36.9885 143.8 36.7069 143.76 36.4265C144.72 36.2741 146.12 35.9589 147.84 35.5541C148.36 37.5941 149.32 39.5101 150.52 40.2853C150.16 40.3349 149.76 40.3621 149.32 40.3621Z" fill="#6D7897"/>
<path fill-rule="evenodd" clip-rule="evenodd" d="M177.52 12.8945C176.52 12.6929 176.44 20.9817 177.6 28.6653C178.64 35.5457 180.84 41.9409 181.72 41.3221C183.56 40.0577 180.68 13.5329 177.52 12.8945Z" fill="#AEB9D8"/>
<path fill-rule="evenodd" clip-rule="evenodd" d="M178.24 25.3045C178.6 24.9109 184.48 24.2541 185.04 26.9421C185.44 28.9825 180.52 30.7973 179.4 30.9121C178.12 29.1645 178.12 26.7733 178.24 25.3045Z" fill="#6D7897"/>
<path fill-rule="evenodd" clip-rule="evenodd" d="M157.72 43.2988C158.28 42.9424 161.96 41.1492 161.72 40.4988C161.44 39.8484 156.36 41.4232 156.52 42.0988C156.64 42.7744 157.12 43.6556 157.72 43.2988Z" fill="#F2BCB6"/>
<path fill-rule="evenodd" clip-rule="evenodd" d="M110.52 59.2997C112.96 58.2749 117.08 68.1761 115.72 68.4989C109.48 69.9681 89.1199 101.097 114.92 107.299C116.04 107.574 115.28 109.906 113.32 109.7C86.0399 106.81 91.4399 67.2709 110.52 59.2997Z" fill="#3D43A2"/>
<path fill-rule="evenodd" clip-rule="evenodd" d="M105.72 91.8232C104.72 91.8232 103.72 91.7472 102.64 91.6712C102.52 91.6612 102.4 91.6516 102.24 91.642C102.88 82.9624 109.08 73.4452 113.36 69.8896C114.12 72.1028 114.8 74.26 115.4 76.36L108.24 91.608C107.44 91.7676 106.6 91.8232 105.72 91.8232Z" fill="#F8D9AF"/>
<path fill-rule="evenodd" clip-rule="evenodd" d="M102.28 94.8332C102.28 94.8328 102.28 94.8324 102.28 94.8316C101.12 83.6584 111.56 69.4792 115.72 68.4988C116.44 68.3288 115.64 65.5068 114.36 63.0204C115.64 65.5072 116.44 68.3288 115.72 68.4988C115.08 68.6536 114.28 69.1388 113.36 69.8896C109.08 73.4452 102.88 82.9624 102.24 91.642C102.16 92.7228 102.2 93.7916 102.28 94.8332Z" fill="#343A3F"/>
<path fill-rule="evenodd" clip-rule="evenodd" d="M102.28 94.8316C102.24 94.7248 102.2 94.614 102.16 94.4984C97.0801 79.1076 109.6 65.992 114.36 63.0204C115.64 65.5068 116.44 68.3288 115.72 68.4988C111.56 69.4792 101.12 83.6584 102.28 94.8316Z" fill="#2D3182"/>
<path fill-rule="evenodd" clip-rule="evenodd" d="M121.32 27.1052C127.6 30.5412 130.56 45.2332 128.32 46.276C126.72 47.0436 124.4 45.4288 124.4 45.4288C124.4 45.4288 123.8 52.3464 129 54.6832C127.2 57.0608 120.8 57.8852 118.04 54.5056C121.6 51.9152 120.04 44.3248 119.44 42.3032C115.08 26.9552 118.4 25.4844 121.32 27.1052Z" fill="#F2BCB6"/>
<path fill-rule="evenodd" clip-rule="evenodd" d="M124.4 46.7652C124.4 46.506 124.4 46.2756 124.4 46.0824C124.4 45.672 124.4 45.4288 124.4 45.4288C124.4 45.4288 124.96 45.8156 125.72 46.1204C125.24 46.3304 124.8 46.5464 124.4 46.7652Z" fill="#FBDFD0"/>
<path fill-rule="evenodd" clip-rule="evenodd" d="M119.36 51.2992L118.96 42.4988C118.96 42.4988 119.16 42.232 119.32 41.8604C119.36 42.0068 119.4 42.1544 119.44 42.3032C119.76 43.3296 120.32 45.7924 120.32 48.3072C120.32 48.892 120.28 49.4796 120.2 50.0524C119.6 50.7988 119.36 51.2992 119.36 51.2992Z" fill="#FBDFD0"/>
<path fill-rule="evenodd" clip-rule="evenodd" d="M120.2 50.0524C120.28 49.4796 120.32 48.892 120.32 48.3072C120.32 45.7924 119.76 43.3296 119.44 42.3032C119.4 42.1544 119.36 42.0068 119.32 41.8604C119.6 41.3296 119.88 40.5856 119.76 40.0984C121.52 43.5968 124.24 45.418 125.76 46.0984C125.76 46.106 125.76 46.1132 125.72 46.1204C124.96 45.8156 124.4 45.4288 124.4 45.4288C124.4 45.4288 124.4 45.672 124.4 46.0824C124.4 46.2756 124.4 46.506 124.4 46.7652C122.24 47.9236 120.96 49.1628 120.2 50.0524Z" fill="#E98B96"/>
<path fill-rule="evenodd" clip-rule="evenodd" d="M120.48 25.5179C121.32 27.2671 120.96 43.6479 117.44 46.8827C113.92 50.1179 111.12 40.7051 111.12 40.7051L113.88 27.7927C113.88 27.7927 119.64 23.7691 120.48 25.5179Z" fill="#F8D9AF"/>
<path opacity="0.497768" fill-rule="evenodd" clip-rule="evenodd" d="M0.215009 23.8108C-1.1471 22.2673 4.26127 11.597 8.02709 17.1285C10.0302 -6.80717 49.4512 -3.22529 30.4217 12.975C41.7593 9.50256 55.9011 12.769 42.3197 22.0048C43.4419 21.1628 49.2909 21.4798 49.972 23.3592C51.3337 27.0459 2.65839 26.5641 0.215009 23.8108Z" fill="#C4E2E6"/>
</svg>
